<svg width="884" height="376" viewBox="0 0 884 376" fill="none" xmlns="http://www.w3.org/2000/svg">
<path d="M513.997 272H481.776V75.3711H532.861L546.08 150.966L547.595 242.671H552.689L554.066 150.966L567.423 75.3711H618.37V272H586.012V212.103L592.346 104.562H586.976L579.815 214.168L567.01 271.725H533.274L520.606 214.168L513.033 104.562H508.076L513.997 212.103V272ZM692.417 274.203C672.497 274.203 658.269 270.669 649.732 263.601C641.286 256.44 636.834 244.599 636.375 228.075C636.008 217.794 635.733 206.136 635.549 193.101C635.457 180.065 635.457 167.03 635.549 153.995C635.733 140.96 636.008 129.256 636.375 118.883C636.742 104.654 641.286 93.4551 650.007 85.2852C658.728 77.1152 672.819 73.0303 692.279 73.0303C711.832 73.0303 726.015 76.6104 734.827 83.7705C743.732 90.9307 748.459 102.727 749.01 119.158C749.194 123.289 749.239 128.108 749.148 133.616C749.056 139.032 748.918 143.852 748.735 148.074H716.514C716.697 143.209 716.789 137.38 716.789 130.587C716.881 123.702 716.835 117.873 716.652 113.1C716.56 108.785 714.586 105.572 710.731 103.461C706.875 101.258 700.725 100.156 692.279 100.156C684.201 100.156 678.28 101.258 674.517 103.461C670.845 105.572 668.871 108.785 668.596 113.1C668.137 125.4 667.816 138.573 667.632 152.618C667.448 166.571 667.448 180.57 667.632 194.615C667.816 208.66 668.137 221.833 668.596 234.134C668.871 238.448 670.891 241.707 674.654 243.91C678.418 246.113 684.339 247.215 692.417 247.215C701.321 247.215 707.793 246.113 711.832 243.91C715.871 241.707 717.983 238.448 718.166 234.134C718.35 229.269 718.396 223.394 718.304 216.509C718.212 209.532 718.074 203.611 717.891 198.746H750.249C750.525 203.244 750.662 208.109 750.662 213.342C750.754 218.574 750.662 223.485 750.387 228.075C749.744 244.599 744.925 256.44 735.929 263.601C727.025 270.669 712.521 274.203 692.417 274.203ZM798.685 272H766.464V75.3711H819.752C839.672 75.3711 854.084 78.8594 862.989 85.8359C871.893 92.8125 876.758 104.333 877.584 120.397C878.227 128.017 878.548 135.039 878.548 141.465C878.548 147.799 878.227 154.638 877.584 161.981C876.758 177.954 871.847 189.429 862.851 196.405C853.947 203.382 839.443 206.87 819.339 206.87H798.685V272ZM798.685 104.562V177.679H819.339C828.243 177.679 834.669 176.485 838.617 174.099C842.656 171.712 844.859 168.27 845.226 163.771C845.868 156.979 846.19 149.451 846.19 141.189C846.19 132.836 845.868 125.309 845.226 118.607C844.859 114.018 842.701 110.529 838.754 108.143C834.807 105.756 828.473 104.562 819.752 104.562H798.685Z" fill="#2072E6"/>
<g clip-path="url(#clip0_241_171)">
<path d="M219.688 0C310.52 14.2697 380 92.9701 380 187.92C380 282.869 310.52 361.57 219.688 375.839V0Z" fill="#2072E6"/>
<path d="M120.234 20.6406C179.472 52.8509 219.688 115.684 219.688 187.92C219.688 260.157 179.472 322.99 120.234 355.2V20.6406Z" fill="#2072E6"/>
<path d="M60.1172 49.0791C97.116 83.7887 120.234 133.151 120.234 187.92C120.234 242.689 97.116 292.051 60.1172 326.76V49.0791Z" fill="#2072E6"/>
<path d="M20.0391 71.0469C45.154 103.296 60.1172 143.858 60.1172 187.919C60.1172 231.981 45.1542 272.543 20.0391 304.792V71.0469Z" fill="#2072E6"/>
<path d="M1.48656e-05 102.796C12.8217 128.408 20.0391 157.32 20.0391 187.92C20.0391 218.519 12.8218 247.432 0 273.044L1.48656e-05 102.796Z" fill="#2072E6"/>
</g>
<defs>
<clipPath id="clip0_241_171">
<rect width="380" height="376" fill="white"/>
</clipPath>
</defs>
</svg>
